# xmcd
#
# Track frame offsets:
#	150
#	19820
#	37732
#
# Disc length: 680 seconds
#
# Revision: 1
# Processed by: cddbd v1.4b41PL1 Copyright (c) Steve Scherf et al.
# Submitted via: audiograbber 1.80
#
DISCID=1602a603
DTITLE=The Kelly Family - One More Song
DYEAR=1900
DGENRE=
TTITLE0=One More Song
TTITLE1=Say That You Love Me
TTITLE2=Leave It To The Spirits
EXTD=
EXTT0=
EXTT1=
EXTT2=
PLAYORDER=
